<?xml version="1.0" standalone="no"?>
<!DOCTYPE svg PUBLIC "-//W3C//DTD SVG 20010904//EN"
 "http://www.w3.org/TR/2001/REC-SVG-20010904/DTD/svg10.dtd">
<svg version="1.0" xmlns="http://www.w3.org/2000/svg"
 width="2014.000000pt" height="2014.000000pt" viewBox="0 0 2014.000000 2014.000000"
 preserveAspectRatio="xMidYMid meet">
<metadata>
Created by potrace 1.11, written by Peter Selinger 2001-2013
</metadata>
<g transform="translate(0.000000,2014.000000) scale(0.100000,-0.100000)"
fill="#000000" stroke="none">
<path d="M9807 20044 c-1 -1 -90 -5 -197 -9 -107 -3 -213 -8 -235 -10 -22 -1
-87 -6 -145 -9 -58 -4 -116 -9 -130 -11 -14 -2 -59 -7 -100 -10 -41 -2 -86 -7
-99 -10 -13 -2 -56 -7 -95 -11 -39 -3 -73 -7 -76 -9 -3 -1 -36 -6 -75 -9 -38
-4 -77 -9 -85 -11 -8 -2 -35 -7 -60 -10 -52 -7 -151 -22 -195 -30 -35 -7 -56
-11 -110 -20 -40 -7 -327 -63 -355 -70 -8 -1 -55 -12 -103 -24 -49 -12 -102
-23 -119 -26 -17 -3 -34 -8 -38 -10 -3 -2 -17 -6 -31 -9 -43 -8 -317 -83 -459
-126 -214 -64 -477 -153 -635 -215 -33 -13 -102 -40 -153 -59 -101 -40 -327
-135 -432 -184 -36 -16 -87 -40 -115 -52 -110 -50 -447 -221 -594 -302 -428
-235 -995 -609 -1311 -864 -8 -7 -64 -52 -125 -100 -95 -76 -341 -283 -385
-325 -9 -8 -69 -63 -135 -124 -210 -193 -539 -528 -706 -720 -189 -217 -251
-292 -400 -485 -66 -85 -126 -162 -132 -170 -74 -93 -397 -563 -397 -578 0 -5
-8 -17 -18 -28 -35 -38 -260 -422 -387 -659 -133 -248 -411 -842 -431 -920 -3
-14 -10 -28 -15 -31 -5 -3 -9 -12 -9 -20 0 -8 -8 -33 -19 -57 -31 -69 -168
-437 -175 -472 -2 -5 -23 -75 -49 -155 -44 -139 -123 -408 -132 -446 -2 -11
-22 -89 -44 -174 -22 -86 -43 -170 -46 -189 -3 -18 -14 -70 -25 -114 -10 -45
-23 -109 -29 -142 -6 -33 -13 -69 -15 -80 -18 -91 -36 -196 -40 -228 -3 -21
-7 -41 -9 -45 -3 -4 -8 -32 -11 -63 -4 -31 -8 -66 -10 -76 -3 -11 -7 -44 -11
-73 -4 -29 -8 -60 -10 -69 -1 -9 -6 -45 -10 -81 -4 -36 -8 -72 -10 -80 -1 -8
-6 -46 -9 -85 -4 -38 -9 -81 -11 -95 -2 -14 -7 -63 -10 -110 -3 -47 -8 -101
-10 -120 -4 -42 -15 -228 -21 -365 -6 -133 -6 -729 0 -830 3 -44 8 -129 12
-190 3 -60 7 -126 9 -145 2 -19 6 -75 10 -125 4 -49 9 -99 11 -109 2 -10 6
-51 9 -90 3 -39 8 -78 10 -86 2 -8 7 -44 10 -80 7 -68 51 -367 60 -410 3 -14
7 -40 10 -59 2 -18 7 -41 9 -50 3 -9 8 -36 11 -61 4 -25 11 -65 17 -90 5 -25
12 -58 15 -75 19 -121 133 -579 198 -804 95 -327 264 -803 374 -1056 5 -11 16
-36 25 -56 8 -19 30 -71 49 -115 97 -225 335 -700 414 -826 13 -21 23 -40 23
-42 0 -3 35 -65 78 -138 236 -399 461 -731 756 -1113 32 -40 147 -182 220
-269 54 -66 181 -210 275 -315 82 -91 518 -530 591 -596 144 -128 233 -207
295 -261 83 -72 395 -322 480 -385 33 -24 62 -46 65 -49 5 -5 133 -97 270
-192 113 -78 201 -138 205 -138 2 0 36 -22 77 -49 40 -27 111 -72 158 -100 47
-28 90 -54 96 -59 5 -5 32 -22 60 -37 27 -15 94 -53 149 -85 531 -305 1175
-591 1790 -795 232 -76 698 -208 855 -240 8 -2 35 -8 60 -14 25 -5 56 -12 70
-15 14 -3 88 -18 165 -34 77 -16 158 -32 180 -35 22 -4 66 -11 97 -17 31 -6
70 -13 85 -15 15 -2 89 -13 163 -24 137 -21 254 -36 345 -45 28 -3 73 -8 100
-10 439 -46 891 -60 1375 -43 113 4 232 9 265 11 144 9 242 17 275 21 19 2 67
7 105 10 39 3 84 8 100 10 17 2 71 9 120 15 50 6 106 13 125 16 19 3 46 6 60
8 14 2 45 6 70 10 25 4 56 9 70 11 248 38 635 116 869 176 64 17 125 32 136
34 20 5 315 90 430 124 33 10 128 42 210 70 83 29 157 54 165 56 24 6 223 83
395 152 306 124 693 308 1041 494 l60 33 76 -47 c41 -26 80 -47 87 -47 32 0
659 397 866 549 39 28 117 86 175 128 107 79 475 372 520 415 13 12 42 38 65
57 175 146 581 537 775 747 248 268 509 581 701 839 41 55 76 102 79 105 3 3
13 16 22 30 9 14 33 48 53 75 19 28 52 75 72 105 21 30 40 57 43 60 8 7 178
269 252 390 550 893 975 1911 1214 2910 50 211 52 219 65 285 7 33 14 65 15
70 6 24 58 303 70 380 2 17 9 55 14 85 5 30 12 75 15 100 3 25 8 56 10 70 4
24 8 53 20 153 3 23 8 58 10 77 3 19 7 64 10 100 3 36 7 76 10 90 2 14 7 61
10 105 3 44 7 100 10 125 5 57 16 250 21 360 5 133 5 694 0 805 -6 125 -17
309 -21 355 -2 19 -6 73 -10 120 -3 47 -8 101 -10 120 -2 19 -7 58 -9 85 -17
157 -44 367 -52 403 -2 12 -7 44 -10 70 -3 26 -7 58 -10 72 -2 14 -7 41 -10
60 -3 19 -7 42 -9 50 -2 8 -7 38 -11 65 -3 28 -8 53 -10 56 -2 4 -6 24 -10 45
-4 30 -50 252 -79 384 -2 8 -13 53 -25 100 -12 47 -24 96 -26 110 -3 14 -10
43 -16 65 -6 22 -12 45 -14 50 -37 172 -258 850 -347 1065 -6 14 -11 27 -12
30 -1 3 -5 14 -10 25 -4 11 -17 43 -27 70 -11 28 -26 66 -35 85 -8 19 -19 44
-24 55 -48 112 -135 306 -165 370 -21 44 -38 82 -39 85 -6 22 -205 407 -244
470 -11 19 -25 44 -30 55 -24 54 -126 221 -140 230 -9 6 -71 39 -138 75 -68
36 -129 72 -138 80 -8 8 -77 110 -154 225 -119 180 -283 411 -371 525 -59 76
-235 296 -245 306 -5 6 -28 33 -50 60 -197 239 -579 641 -840 884 -184 171
-472 418 -625 535 -36 27 -76 60 -90 72 -14 13 -28 23 -31 23 -3 0 -15 8 -27
18 -54 46 -63 52 -71 52 -5 0 -11 4 -13 8 -4 12 -218 165 -388 279 -193 129
-483 308 -630 390 -187 104 -330 181 -330 177 0 -2 -17 6 -37 19 -21 13 -94
51 -163 84 -555 270 -1091 475 -1683 644 -115 32 -220 61 -234 63 -13 3 -39 9
-56 15 -18 5 -77 19 -132 31 -55 12 -136 30 -180 40 -44 10 -93 21 -110 24
-16 4 -41 9 -55 11 -14 3 -40 8 -59 11 -18 3 -43 8 -55 10 -34 6 -128 23 -166
29 -19 3 -57 10 -85 15 -27 5 -70 11 -95 15 -25 3 -54 7 -65 9 -32 6 -106 15
-165 21 -30 3 -72 8 -92 11 -64 9 -91 12 -163 19 -111 10 -154 14 -255 21 -52
3 -111 7 -130 9 -97 10 -785 25 -793 19z"/>
</g>
</svg>
